<svg width="72" height="165" viewBox="0 0 72 165" fill="none" xmlns="http://www.w3.org/2000/svg">
<g clip-path="url(#clip0_936_4416)">
<path d="M3.31372 158.308C3.10839 158.308 2.94039 158.28 2.80972 158.224C2.69772 158.168 2.61372 158.075 2.55772 157.944C2.52039 157.813 2.50172 157.645 2.50172 157.44V139.604C2.50172 139.417 2.52972 139.268 2.58572 139.156C2.66039 139.025 2.76305 138.932 2.89372 138.876C3.02439 138.801 3.17372 138.764 3.34172 138.764H9.64172C10.5937 138.764 11.4337 138.904 12.1617 139.184C12.9084 139.445 13.5337 139.847 14.0377 140.388C14.5604 140.911 14.9524 141.545 15.2137 142.292C15.4937 143.039 15.6337 143.888 15.6337 144.84C15.6337 145.792 15.4937 146.641 15.2137 147.388C14.9524 148.116 14.5604 148.741 14.0377 149.264C13.5151 149.787 12.8804 150.188 12.1337 150.468C11.4057 150.729 10.5657 150.86 9.61372 150.86H4.18172V157.468C4.18172 157.673 4.15372 157.841 4.09772 157.972C4.04172 158.084 3.94839 158.168 3.81772 158.224C3.70572 158.28 3.53772 158.308 3.31372 158.308ZM4.18172 149.18H9.64172C10.5564 149.18 11.3311 149.012 11.9657 148.676C12.6191 148.321 13.1137 147.817 13.4497 147.164C13.8044 146.492 13.9817 145.699 13.9817 144.784C13.9817 143.869 13.8044 143.095 13.4497 142.46C13.1137 141.807 12.6191 141.312 11.9657 140.976C11.3124 140.621 10.5284 140.444 9.61372 140.444H4.18172V149.18ZM33.8766 157.104C33.9699 157.272 34.0166 157.431 34.0166 157.58C34.0353 157.711 33.9979 157.832 33.9046 157.944C33.8299 158.037 33.6993 158.131 33.5126 158.224C33.2139 158.355 32.9713 158.364 32.7846 158.252C32.6166 158.159 32.4673 157.981 32.3366 157.72L24.6086 141.088L16.9086 157.664C16.7779 157.944 16.6193 158.131 16.4326 158.224C16.2646 158.317 16.0219 158.308 15.7046 158.196C15.5179 158.121 15.3873 158.028 15.3126 157.916C15.2379 157.785 15.2193 157.627 15.2566 157.44C15.2939 157.253 15.3686 157.039 15.4806 156.796L23.8526 139.268C23.9273 139.119 24.0299 138.997 24.1606 138.904C24.3099 138.811 24.4686 138.764 24.6366 138.764C24.7486 138.764 24.8513 138.783 24.9446 138.82C25.0379 138.857 25.1219 138.913 25.1966 138.988C25.2713 139.063 25.3366 139.165 25.3926 139.296L33.8766 157.104ZM19.0646 152.204L19.6246 150.804H29.6486L30.1806 152.204H19.0646ZM37.7454 158.308C37.5401 158.308 37.3721 158.28 37.2414 158.224C37.1294 158.168 37.0454 158.075 36.9894 157.944C36.9521 157.813 36.9334 157.645 36.9334 157.44V139.576C36.9334 139.389 36.9614 139.24 37.0174 139.128C37.0921 139.016 37.1854 138.932 37.2974 138.876C37.4281 138.801 37.5867 138.764 37.7734 138.764H44.1294C45.1187 138.764 45.9774 138.895 46.7054 139.156C47.4521 139.417 48.0774 139.8 48.5814 140.304C49.0854 140.808 49.4587 141.443 49.7014 142.208C49.9627 142.955 50.0934 143.823 50.0934 144.812C50.0934 145.391 50.0001 146.025 49.8134 146.716C49.6267 147.407 49.3374 148.06 48.9454 148.676C48.5534 149.292 48.0307 149.796 47.3774 150.188C46.7427 150.58 45.9587 150.776 45.0254 150.776H38.5854V157.468C38.5854 157.673 38.5574 157.841 38.5014 157.972C38.4454 158.084 38.3521 158.168 38.2214 158.224C38.1094 158.28 37.9507 158.308 37.7454 158.308ZM49.8414 158.112C49.5987 158.243 49.3747 158.271 49.1694 158.196C48.9827 158.121 48.8241 157.963 48.6934 157.72L44.4374 150.496L46.1734 150.188L50.1774 156.852C50.3081 157.057 50.3827 157.235 50.4014 157.384C50.4201 157.533 50.3827 157.664 50.2894 157.776C50.1961 157.888 50.0467 158 49.8414 158.112ZM38.5854 149.18H44.9694C45.4734 149.18 45.9307 149.087 46.3414 148.9C46.7707 148.713 47.1347 148.433 47.4334 148.06C47.7507 147.687 47.9934 147.229 48.1614 146.688C48.3481 146.147 48.4414 145.512 48.4414 144.784C48.4414 143.832 48.2734 143.039 47.9374 142.404C47.6201 141.751 47.1347 141.265 46.4814 140.948C45.8467 140.612 45.0441 140.444 44.0734 140.444H38.5854V149.18ZM71.1735 157.104C71.2668 157.272 71.3135 157.431 71.3135 157.58C71.3321 157.711 71.2948 157.832 71.2015 157.944C71.1268 158.037 70.9961 158.131 70.8095 158.224C70.5108 158.355 70.2681 158.364 70.0815 158.252C69.9135 158.159 69.7641 157.981 69.6335 157.72L61.9055 141.088L54.2055 157.664C54.0748 157.944 53.9161 158.131 53.7295 158.224C53.5615 158.317 53.3188 158.308 53.0015 158.196C52.8148 158.121 52.6841 158.028 52.6095 157.916C52.5348 157.785 52.5161 157.627 52.5535 157.44C52.5908 157.253 52.6655 157.039 52.7775 156.796L61.1495 139.268C61.2241 139.119 61.3268 138.997 61.4575 138.904C61.6068 138.811 61.7655 138.764 61.9335 138.764C62.0455 138.764 62.1481 138.783 62.2415 138.82C62.3348 138.857 62.4188 138.913 62.4935 138.988C62.5681 139.063 62.6335 139.165 62.6895 139.296L71.1735 157.104ZM56.3615 152.204L56.9215 150.804H66.9455L67.4775 152.204H56.3615Z" fill="#2B2B2B"/>
<path d="M12.512 108.834C12.512 102.519 14.7947 97.0367 19.36 92.386C23.9253 87.7353 29.6 85.41 36.384 85.41C43.1253 85.41 48.8853 87.6287 53.664 92.066C58.4 96.5033 60.768 101.965 60.768 108.45C60.768 114.935 58.4213 120.461 53.728 125.026C49.0347 129.549 43.4453 131.81 36.96 131.81C33.4187 131.81 30.112 131.17 27.04 129.89C23.9253 128.61 21.3227 126.903 19.232 124.77C17.1413 122.637 15.4987 120.183 14.304 117.41C13.1093 114.637 12.512 111.778 12.512 108.834ZM36.64 120.482C40.4373 120.482 43.5307 119.266 45.92 116.834C48.2667 114.359 49.44 111.607 49.44 108.578C49.44 105.549 48.288 102.818 45.984 100.386C43.68 97.954 40.5867 96.738 36.704 96.738C32.8213 96.738 29.7067 97.9753 27.36 100.45C25.0133 102.882 23.84 105.613 23.84 108.642C23.84 111.671 25.0347 114.402 27.424 116.834C29.7707 119.266 32.8427 120.482 36.64 120.482ZM15.072 54.793C14.304 54.3663 13.792 53.7477 13.536 52.937C13.28 52.1263 13.152 51.1237 13.152 49.929C13.152 48.6917 13.2587 47.7103 13.472 46.985C13.6853 46.217 13.9413 45.6623 14.24 45.321C14.5387 44.937 14.9867 44.6597 15.584 44.489C16.2667 44.233 17.3547 44.105 18.848 44.105H54.368C55.392 44.105 56.1387 44.1477 56.608 44.233C57.0773 44.2757 57.632 44.4677 58.272 44.809C59.424 45.4063 60 47.0703 60 49.801C60 51.465 59.872 52.617 59.616 53.257C59.36 53.897 58.9547 54.4303 58.4 54.857C45.6 64.457 37.2373 70.7717 33.312 73.801H54.368C55.392 73.801 56.1387 73.8437 56.608 73.929C57.0773 73.9717 57.632 74.1637 58.272 74.505C59.424 75.1023 60 76.7663 60 79.497C60 82.1423 59.424 83.7637 58.272 84.361C57.632 84.7023 57.056 84.9157 56.544 85.001C56.032 85.0437 55.2853 85.065 54.304 85.065H18.592C16.9707 85.065 15.7973 84.873 15.072 84.489C14.304 84.0623 13.792 83.4437 13.536 82.633C13.28 81.8223 13.152 80.777 13.152 79.497C13.152 78.217 13.28 77.2143 13.536 76.489C13.7493 75.721 14.0053 75.1877 14.304 74.889C14.432 74.7183 14.9867 74.2277 15.968 73.417C28.2133 64.4143 36.2987 58.3983 40.224 55.369H18.592C16.9707 55.369 15.7973 55.177 15.072 54.793ZM48.672 31.5145V11.8025C48.672 10.8212 48.7147 10.0958 48.8 9.6265C48.8427 9.1145 49.0347 8.5385 49.376 7.8985C49.9733 6.7465 51.6373 6.1705 54.368 6.1705C57.3547 6.1705 59.104 6.95984 59.616 8.5385C59.872 9.26384 60 10.3732 60 11.8665V37.2105C60 40.1972 59.1893 41.9465 57.568 42.4585C56.8853 42.7145 55.7973 42.8425 54.304 42.8425H18.72C16.544 42.8425 15.072 42.4372 14.304 41.6265C13.4933 40.8158 13.088 39.2798 13.088 37.0185L13.088 11.8025C13.088 10.8212 13.1307 10.0958 13.216 9.6265C13.2587 9.1145 13.4507 8.5385 13.792 7.8985C14.3893 6.7465 16.0533 6.1705 18.784 6.1705C21.7707 6.1705 23.52 6.95984 24.032 8.5385C24.288 9.26384 24.416 10.3732 24.416 11.8665V31.5145H30.88V18.8425C30.88 17.8612 30.9227 17.1358 31.008 16.6665C31.0507 16.1545 31.2427 15.5785 31.584 14.9385C32.1813 13.7865 33.8453 13.2105 36.576 13.2105C39.5627 13.2105 41.312 14.0212 41.824 15.6425C42.08 16.3678 42.208 17.4772 42.208 18.9705V31.5145H48.672Z" fill="url(#paint0_linear_936_4416)"/>
</g>
<defs>
<linearGradient id="paint0_linear_936_4416" x1="14" y1="131.379" x2="40.0033" y2="-0.832853" gradientUnits="userSpaceOnUse">
<stop stop-color="#0038F5"/>
<stop offset="1" stop-color="#9F03FF"/>
</linearGradient>
<clipPath id="clip0_936_4416">
<rect width="72" height="165" fill="white"/>
</clipPath>
</defs>
</svg>
