<svg width="114" height="48" viewBox="0 0 114 48" fill="none" xmlns="http://www.w3.org/2000/svg">
<path d="M42.6186 18.992C42.7572 18.992 42.8692 19.008 42.9546 19.04C43.0506 19.072 43.1252 19.136 43.1786 19.232C43.2319 19.3173 43.2586 19.4613 43.2586 19.664C43.2586 19.856 43.2266 20 43.1626 20.096C43.1092 20.192 43.0346 20.256 42.9386 20.288C42.8426 20.3093 42.7252 20.32 42.5866 20.32H39.2746V29.456C39.2746 29.5947 39.2532 29.7173 39.2106 29.824C39.1786 29.9307 39.1092 30.0107 39.0026 30.064C38.9066 30.128 38.7572 30.16 38.5546 30.16C38.3412 30.16 38.1812 30.128 38.0746 30.064C37.9786 30.0107 37.9146 29.9307 37.8826 29.824C37.8612 29.7067 37.8506 29.5787 37.8506 29.44V20.32H34.4906C34.3519 20.32 34.2346 20.3093 34.1386 20.288C34.0426 20.256 33.9679 20.192 33.9146 20.096C33.8612 20 33.8346 19.856 33.8346 19.664C33.8346 19.4613 33.8559 19.3173 33.8986 19.232C33.9519 19.136 34.0266 19.072 34.1226 19.04C34.2292 19.008 34.3466 18.992 34.4746 18.992H42.6186ZM57.0483 29.136C57.1336 29.296 57.1763 29.4347 57.1763 29.552C57.187 29.6587 57.155 29.76 57.0803 29.856C57.0056 29.9413 56.8883 30.0213 56.7283 30.096C56.4723 30.2133 56.2696 30.24 56.1203 30.176C55.9816 30.112 55.8536 29.9573 55.7363 29.712L51.7363 21.2L47.7683 29.696C47.651 29.9413 47.5176 30.096 47.3683 30.16C47.2296 30.224 47.027 30.1973 46.7603 30.08C46.6003 30.016 46.483 29.936 46.4083 29.84C46.3443 29.744 46.3176 29.6267 46.3283 29.488C46.3496 29.3493 46.403 29.1893 46.4883 29.008L51.0803 19.424C51.1443 19.296 51.235 19.1947 51.3523 19.12C51.4803 19.0347 51.6136 18.992 51.7523 18.992C51.8483 18.992 51.939 19.008 52.0243 19.04C52.1096 19.072 52.1843 19.12 52.2483 19.184C52.3123 19.248 52.3656 19.3333 52.4083 19.44L57.0483 29.136ZM48.7283 26.976L49.2723 25.744H54.2323L54.7603 26.976H48.7283ZM63.9139 30.16C63.7326 30.16 63.5886 30.128 63.4819 30.064C63.3859 30 63.3166 29.9147 63.2739 29.808C63.2419 29.6907 63.2259 29.5573 63.2259 29.408V19.664C63.2259 19.5253 63.2473 19.408 63.2899 19.312C63.3326 19.216 63.4073 19.1413 63.5139 19.088C63.6313 19.024 63.7913 18.992 63.9939 18.992C64.2286 18.992 64.3939 19.0133 64.4899 19.056C64.5859 19.0987 64.6819 19.1733 64.7779 19.28L70.7939 27.792V19.664C70.7939 19.5253 70.8099 19.408 70.8419 19.312C70.8846 19.216 70.9593 19.1413 71.0659 19.088C71.1726 19.024 71.3273 18.992 71.5299 18.992C71.7219 18.992 71.8659 19.024 71.9619 19.088C72.0686 19.152 72.1379 19.2427 72.1699 19.36C72.2126 19.4667 72.2339 19.5893 72.2339 19.728V29.424C72.2339 29.5627 72.2073 29.6907 72.1539 29.808C72.1113 29.9147 72.0313 30 71.9139 30.064C71.8073 30.128 71.6526 30.16 71.4499 30.16C71.2793 30.16 71.1353 30.1387 71.0179 30.096C70.9113 30.0533 70.8099 29.9733 70.7139 29.856L64.6659 21.408V29.424C64.6659 29.5627 64.6446 29.6907 64.6019 29.808C64.5593 29.9147 64.4846 30 64.3779 30.064C64.2713 30.128 64.1166 30.16 63.9139 30.16ZM84.2501 30.272C83.4927 30.272 82.7781 30.128 82.1061 29.84C81.4447 29.552 80.8581 29.152 80.3461 28.64C79.8447 28.1173 79.4501 27.52 79.1621 26.848C78.8741 26.176 78.7301 25.4507 78.7301 24.672C78.7301 23.8827 78.8687 23.1413 79.1461 22.448C79.4234 21.744 79.8074 21.1307 80.2981 20.608C80.7994 20.0853 81.3754 19.6747 82.0261 19.376C82.6767 19.0773 83.3701 18.928 84.1061 18.928C84.8741 18.928 85.5887 19.072 86.2501 19.36C86.9221 19.648 87.5034 20.0533 87.9941 20.576C88.4954 21.088 88.8901 21.6907 89.1781 22.384C89.4661 23.0773 89.6101 23.8187 89.6101 24.608C89.6101 25.3867 89.4661 26.1173 89.1781 26.8C88.9007 27.472 88.5167 28.0747 88.0261 28.608C87.5354 29.1307 86.9647 29.5413 86.3141 29.84C85.6741 30.128 84.9861 30.272 84.2501 30.272ZM84.1541 28.816C84.7087 28.816 85.2261 28.7093 85.7061 28.496C86.1967 28.2827 86.6234 27.984 86.9861 27.6C87.3487 27.2053 87.6314 26.7573 87.8341 26.256C88.0474 25.744 88.1541 25.1893 88.1541 24.592C88.1541 24.016 88.0474 23.4773 87.8341 22.976C87.6314 22.464 87.3434 22.016 86.9701 21.632C86.6074 21.2373 86.1861 20.928 85.7061 20.704C85.2261 20.48 84.7141 20.368 84.1701 20.368C83.6261 20.368 83.1141 20.48 82.6341 20.704C82.1541 20.928 81.7274 21.232 81.3541 21.616C80.9914 22 80.7034 22.448 80.4901 22.96C80.2874 23.472 80.1861 24.0213 80.1861 24.608C80.1861 25.184 80.2874 25.728 80.4901 26.24C80.7034 26.752 80.9914 27.2 81.3541 27.584C81.7274 27.968 82.1487 28.272 82.6181 28.496C83.0981 28.7093 83.6101 28.816 84.1541 28.816ZM103.272 18.992C103.41 18.992 103.522 19.008 103.608 19.04C103.704 19.072 103.778 19.136 103.832 19.232C103.885 19.3173 103.912 19.4613 103.912 19.664C103.912 19.856 103.88 20 103.816 20.096C103.762 20.192 103.688 20.256 103.592 20.288C103.496 20.3093 103.378 20.32 103.24 20.32H99.9277V29.456C99.9277 29.5947 99.9064 29.7173 99.8637 29.824C99.8317 29.9307 99.7624 30.0107 99.6557 30.064C99.5597 30.128 99.4104 30.16 99.2077 30.16C98.9944 30.16 98.8344 30.128 98.7277 30.064C98.6317 30.0107 98.5677 29.9307 98.5357 29.824C98.5144 29.7067 98.5037 29.5787 98.5037 29.44V20.32H95.1437C95.005 20.32 94.8877 20.3093 94.7917 20.288C94.6957 20.256 94.621 20.192 94.5677 20.096C94.5144 20 94.4877 19.856 94.4877 19.664C94.4877 19.4613 94.509 19.3173 94.5517 19.232C94.605 19.136 94.6797 19.072 94.7757 19.04C94.8824 19.008 94.9997 18.992 95.1277 18.992H103.272ZM111.033 30.16C110.819 30.16 110.659 30.128 110.553 30.064C110.457 30.0107 110.393 29.9307 110.361 29.824C110.329 29.7067 110.313 29.5733 110.313 29.424V19.712C110.313 19.5627 110.329 19.4347 110.361 19.328C110.403 19.2213 110.473 19.1413 110.569 19.088C110.675 19.024 110.835 18.992 111.049 18.992C111.262 18.992 111.417 19.024 111.513 19.088C111.619 19.1413 111.683 19.2213 111.705 19.328C111.737 19.4347 111.753 19.568 111.753 19.728V29.44C111.753 29.5893 111.737 29.7173 111.705 29.824C111.673 29.9307 111.603 30.0107 111.497 30.064C111.401 30.128 111.246 30.16 111.033 30.16Z" fill="black"/>
<rect y="12" width="24" height="24" rx="4" fill="#407BFF"/>
<path d="M10.7276 29.2H10.5276C9.58091 27.9733 8.79424 26.8667 8.16758 25.88C7.54091 24.8933 7.22758 23.9733 7.22758 23.12C7.22758 22.1333 7.60758 21.42 8.36758 20.98C9.14091 20.5267 10.1609 20.3 11.4276 20.3H14.2476L14.2676 18.1H6.38758L5.70758 16.8V16.6H17.6076L18.2876 17.9V18.1H15.9476L15.9876 29.2H15.7876L14.1876 28.16L14.2276 21.8H11.6476C10.6742 21.8 9.94758 22.02 9.46758 22.46C9.00091 22.8867 8.76758 23.4133 8.76758 24.04C8.76758 24.3333 8.80758 24.6133 8.88758 24.88C8.98091 25.1467 9.12758 25.44 9.32758 25.76C9.54091 26.08 9.82758 26.46 10.1876 26.9C10.5609 27.3267 11.0276 27.86 11.5876 28.5L10.7276 29.2Z" fill="white"/>
</svg>
